PathFileType	4	(X/Y/Z)	52_1_22_p0_0-331_filt_butterworth.trc
DataRate	CameraRate	NumFrames	NumMarkers	Units	OrigDataRate	OrigDataStartFrame	OrigNumFrames
54.0	54.0	6	27	m	54.0	248	331
Frame#	Time	RHip			RKnee			RAnkle			RBigToe			RSmallToe			RHeel			LHip			LKnee			LAnkle			LBigToe			LSmallToe			LHeel			Neck			Head			Nose			RShoulder			RElbow			RWrist			RThumb			RIndex			RPinky			LShoulder			LElbow			LWrist			LThumb			LIndex			LPinky			
		X1	Y1	Z1	X2	Y2	Z2	X3	Y3	Z3	X4	Y4	Z4	X5	Y5	Z5	X6	Y6	Z6	X7	Y7	Z7	X8	Y8	Z8	X9	Y9	Z9	X10	Y10	Z10	X11	Y11	Z11	X12	Y12	Z12	X13	Y13	Z13	X14	Y14	Z14	X15	Y15	Z15	X16	Y16	Z16	X17	Y17	Z17	X18	Y18	Z18	X19	Y19	Z19	X20	Y20	Z20	X21	Y21	Z21	X22	Y22	Z22	X23	Y23	Z23	X24	Y24	Z24	X25	Y25	Z25	X26	Y26	Z26	X27	Y27	Z27	
248	4.592592592592593	0.1942753540313144	0.5371581917418905	0.4737283206401477	0.10671036930015661	0.6036800205051467	0.8753408843736636	0.020994293213261177	0.8137978051912272	1.271114137706696	0.01418679896035689	0.6337311545013039	1.3185541294916006	0.0706836641279824	0.6419392388686135	1.3280836746787772	-9.918792790795708e-05	0.8791869208328691	1.3100407310942834	0.005511306169189844	0.5804949182761713	0.4479225590070809	-0.07600003355029776	0.664337171100821	0.8327644753709652	-0.14609249168370064	0.7846746781453413	1.2219283895039155	-0.1328016399736331	0.5773076782297422	1.249194290011701	-0.1911351876218862	0.6409841629781008	1.2536759519677911	-0.13514506786620667	0.8796980555532914	1.3009291168271708	0.21523878122512669	0.5038343823809741	0.00046782090112709984	0.243514803309822	0.3980289004478766	-0.20334949884001569	0.21759708843652117	0.32599270150087234	-0.08847195554701837	0.33373298148746766	0.4902730284513231	0.10274689801419769	0.4402123094073071	0.66221516733256	0.3141889017292003	0.4864608927006252	0.46993653901261123	0.4684798703928269	0.43076782368209177	0.3665747675685836	0.520007754992702	0.441188330727935	0.37942565169364145	0.5382558970093224	0.47148367840235705	0.44193115283033524	0.5636568148218407	0.07038182642478819	0.5200364894753339	0.0474074714728782	-0.06997510512459992	0.5847376440122756	0.2159719983490071	-0.054299366980621544	0.4395934369204969	0.3828134887094498	-0.018834015602272797	0.4254229721879301	0.4818199150400033	-0.04625716841717739	0.4312175349236474	0.4823989163077235	-0.08458897286145872	0.3968331160167998	0.46777837142262535
249	4.611111111111111	0.193941559656722	0.532878286767808	0.47399011255573975	0.10665292494209509	0.6038898898627526	0.8765363354349922	0.019175313268642934	0.8263308259501245	1.2752180665840647	0.014237053785639858	0.6337076888241912	1.3184734008121266	0.07230805503659302	0.6372211915173562	1.32729406958718	-0.00015726243021096567	0.8795185743930741	1.3112368406780455	0.007595999390882062	0.5804486709262243	0.44872745532900116	-0.07600468125699954	0.6644873845521717	0.8328559658876794	-0.14643195210727972	0.7868816066836017	1.2237104035097834	-0.13270641902717567	0.5761757915562691	1.2491955393385705	-0.18941621126636582	0.6367524435910618	1.2526076641150454	-0.1350818483023798	0.8730244958566343	1.302330799587256	0.214173316251829	0.49898503251297566	0.0006200712344802025	0.2445628636870583	0.401114685834006	-0.20455606159107148	0.21902751534628798	0.32572375636383644	-0.08855418163907669	0.33367573775430054	0.4899483741251844	0.10273934677372831	0.43936316595812897	0.6634763782844203	0.3141938995562434	0.49788549691726824	0.47939881100893306	0.46962426352434566	0.45041750711942985	0.369346597340753	0.5250334287513366	0.46213993007505405	0.3823754381570294	0.5404642878515598	0.48996857239466884	0.46519621288804425	0.5675510229698559	0.07036883471272792	0.5201210252867912	0.04768885633219615	-0.07002244524871624	0.5838358927399643	0.21713889306957534	-0.05122275591814334	0.4357185093226167	0.3829019937649072	-0.009930670590895632	0.4062251044944175	0.4788446940213371	-0.03312280299295857	0.4130572990007952	0.48079045443796276	-0.08122757693284881	0.39683890766828345	0.46627108068667755
250	4.62962962962963	0.19413002550088915	0.5271840384149796	0.47341537336826567	0.10656776235448936	0.6039773664326659	0.8775558945298869	0.01765895168517015	0.8332278958481407	1.2774319653860018	0.014286447223917292	0.6337069497913507	1.31838464409576	0.0744241144540429	0.6301373623610287	1.325830643702172	-0.00021321313208660472	0.879155505062532	1.3108167110790223	0.009111405402009269	0.5807020910657104	0.449956134524926	-0.07601104995303962	0.6645844405650838	0.8328703423698636	-0.14736182474275672	0.7891573520419777	1.2241834703640297	-0.1329044421356169	0.5722865028163976	1.248970171061956	-0.18930048058450724	0.6355629596783401	1.253082333787138	-0.13528657839030506	0.8678145466455174	1.3021625387382512	0.21336088418567903	0.4955261220041822	0.0006683871998956615	0.24598634511166434	0.4053788844697239	-0.20659204997098912	0.22082559307741076	0.3254113948415631	-0.0880292796428042	0.33362181846275385	0.489693078558697	0.10273194515434293	0.4388716103233663	0.6632559626741716	0.31411887601372795	0.506845501544282	0.4858353634308195	0.47223999214725165	0.47819813099131747	0.3738093839930722	0.5361067602393147	0.4930650156023238	0.38239656965508007	0.5476104304561263	0.5048363529183368	0.48293630072748844	0.5731935003297864	0.0703692730707918	0.5201725020118881	0.047939446022674956	-0.07124399956247499	0.584435786616538	0.21954102128264785	-0.04930426945582318	0.43570434942384756	0.3826882729825496	-0.0026746618693014416	0.3893457407913536	0.47579119297360173	-0.019183519483340832	0.39047710320125184	0.4792621483714871	-0.07891656920240045	0.3981782633934007	0.4653786649077448
251	4.648148148148148	0.1949882327974466	0.5234872176571398	0.4722358412939419	0.10652364146950313	0.604012743478324	0.8779905987812896	0.017124496540240747	0.8344297783256331	1.2778366672748311	0.014351220626686572	0.633739157442192	1.3182665825099937	0.07593891464077433	0.6242745736456237	1.3239090260219137	-0.00025235468344790774	0.8784804210748973	1.3098281562975935	0.009293651574197346	0.5814264709846633	0.4513035650289996	-0.07601157446309505	0.6645891033148937	0.8328442767906792	-0.1482757452852186	0.7877287624837411	1.2224830567118048	-0.13364527368757104	0.5668535518626491	1.2483020622269916	-0.19008296268412123	0.6359759636295967	1.2544261591657204	-0.1358542865205553	0.8657748374375444	1.299981541920243	0.2130602963775285	0.49451478907339697	0.0006579807853180958	0.24714163055786986	0.40862677523163493	-0.20876644828811516	0.22201393034833516	0.3253341405707278	-0.08765794008041718	0.3338880950198668	0.49077142005493546	0.10278147875747509	0.4373289642204963	0.6629552451874038	0.31421950963699025	0.5132604563886302	0.48945782278521605	0.47640657222259275	0.5092903736513733	0.37943118042090845	0.5481724251485133	0.5248258027437366	0.38339366369993544	0.5571782158513005	0.5174332621063187	0.4950118825898125	0.5788044953210663	0.07038684209443484	0.520100124472807	0.04802819764036077	-0.07274225015573628	0.5839462758183411	0.222552646639397	-0.04821614688621695	0.43624819518502256	0.38174000905868993	0.0021384039347477103	0.37789552555498884	0.47362525707260755	-0.007192996960678252	0.3740307538275227	0.47820908520617644	-0.07595680948221417	0.3990911428491716	0.4653531514551232
252	4.666666666666667	0.19599725646154012	0.522836013434085	0.4709450227831167	0.10646548396861227	0.6041015397246674	0.8783601568072185	0.01720327874521378	0.8334235188349691	1.2775696079557326	0.01442899741555852	0.6337864761367169	1.3181346632657625	0.07645274720651057	0.6218850164398313	1.3227020295591554	-0.00026184429653161833	0.878077988068866	1.3092762104069335	0.008732381940370905	0.5823314258233421	0.4520931181623036	-0.07601221910393709	0.6645239692198117	0.8328256312310849	-0.14798482467687893	0.7801603959144562	1.219373511023299	-0.13469534209894354	0.5629042116778191	1.2474108973732076	-0.19077867854723954	0.6364619393585875	1.255501141446391	-0.13648449440084304	0.8655752054014951	1.296247369316193	0.2130555708184799	0.4948052419928486	0.0006208123312891198	0.24802380987229963	0.41013245340236537	-0.21038464757147793	0.22227209408368068	0.32560667104011465	-0.08762980674587142	0.3347936981665656	0.4944369925573194	0.10291309072202862	0.4346324637124298	0.6615920751515965	0.31495563008708277	0.5183067008241654	0.49136807905516433	0.48130458166382073	0.5359253885332466	0.3861361798981052	0.5574808978166237	0.5493051846447727	0.39173355886437966	0.5664642758569574	0.530468226640595	0.5102447394559452	0.5846725335226757	0.07041479163422443	0.5198944226527868	0.04800816608090128	-0.07318946058617018	0.5806827666891687	0.22484279007159974	-0.047247345466632756	0.43476482545855377	0.38028130336131544	0.004901716997279553	0.3716558825268296	0.4721013806758575	0.0006198047878804103	0.36750165769100934	0.47730684703177356	-0.07204232866440888	0.3998807306242404	0.4661281373794517
253	4.685185185185185	0.19682078804175715	0.5246940131328409	0.4702851740502075	0.10630731217744131	0.604256539175239	0.8790530289349846	0.01733786685166354	0.83264824203582	1.2773723210426353	0.01449941280161584	0.6338056777446037	1.3179856325877295	0.07644621082911421	0.6236228251820389	1.3229999511893806	-0.00025164401577624016	0.877990446314942	1.3091938502001441	0.00805233898196807	0.583064079499608	0.4524727286872281	-0.07601946149924378	0.6644616199689393	0.8328380366303232	-0.14643052095519415	0.7700633710569355	1.216653890807875	-0.13544419999296736	0.5615389165244647	1.2469295382180312	-0.19102895314361157	0.636626311267173	1.2558702232140182	-0.13681311848869918	0.8657152288030452	1.2931220384738973	0.2131147406235752	0.49516604097665484	0.0005535824825324907	0.2492951876379517	0.4106324150848968	-0.211058075848927	0.22221344633619478	0.32582048708318595	-0.08797960655320117	0.3360792187134145	0.4997007174564898	0.10306561186911939	0.43105503532398654	0.657342722777745	0.31632063088062046	0.5231451164617996	0.4949579969563886	0.48586320610347833	0.5560413175838147	0.39957373322660983	0.5651584514389618	0.56658215674906	0.4131213308445902	0.5752471034165025	0.543995302793999	0.5300335994672347	0.5905429999876265	0.0704282155872987	0.5196738745666178	0.047961919357169175	-0.07175054316203333	0.5756110686005753	0.22589520661214116	-0.04561991470393689	0.4305664782177684	0.379106390389249	0.006262301662043057	0.36913154840203033	0.47080540923753944	0.0037938729677431116	0.36603052457133656	0.47594343310355613	-0.06871135240100652	0.4003572650393389	0.4670482244725847
